# AST/ASF file generated using VICON BodyLanguage
# -----------------------------------------------
:version 1.10
:name VICON
:units
  mass 1.0
  length 0.45
  angle deg
:documentation
   .ast/.asf automatically generated from VICON data using
   VICON BodyBuilder and BodyLanguage model FoxedUp or BRILLIANT.MOD
:root
   order TX TY TZ RX RY RZ
   axis XYZ
   position 0 0 0  
   orientation 0 0 0 
:bonedata
  begin
     id 1 
     name lhipjoint
     direction 0.660183 -0.676772 0.325788 
     length 2.75133 
     axis 0 0 0  XYZ
  end
  begin
     id 2 
     name lfemur
     direction 0.34202 -0.939693 0  
     length 7.70317  
     axis 0 0 20  XYZ
    dof rx ry rz
    limits (-160.0 20.0)
           (-70.0 70.0)
           (-60.0 70.0)
  end
  begin
     id 3 
     name ltibia
     direction 0.342105 -0.939662 0   
     length 7.18701   
     axis 0 0 20   XYZ
    dof rx
    limits (-10.0 170.0)
  end
  begin
     id 4 
     name lfoot
     direction 0.14163 -0.389126 0.910232   
     length 2.41719   
     axis -90 7.62852e-016 20   XYZ
    dof rx rz
    limits (-45.0 90.0)
           (-70.0 20.0)
  end
  begin
     id 5 
     name ltoes
     direction 1.53533e-011 -4.21926e-011 1   
     length 1.18611   
     axis -90 7.62852e-016 20   XYZ
    dof rx
    limits (-90.0 20.0)
  end
  begin
     id 6 
     name rhipjoint
     direction -0.6658 -0.67229 0.323631   
     length 2.76968  
     axis 0 0 0  XYZ 
  end
  begin
     id 7 
     name rfemur
     direction -0.34202 -0.939693 0   
     length 7.92547   
     axis 0 0 -20   XYZ
    dof rx ry rz
    limits (-160.0 20.0)
           (-70.0 70.0)
           (-70.0 60.0)
  end
  begin
     id 8 
     name rtibia
     direction -0.342022 -0.939692 0   
     length 7.22641   
     axis 0 0 -20   XYZ
    dof rx
    limits (-10.0 170.0)
 end
 begin
     id 9 
     name rfoot
     direction -0.105675 -0.29034 0.951071   
     length 2.48149  
     axis -90 -7.62852e-016 -20   XYZ
    dof rx rz
    limits (-45.0 90.0)
           (-20.0 70.0)
  end
  begin
     id 10 
     name rtoes
     direction -1.5349e-011 -4.21859e-011 1   
     length 1.23343   
     axis -90 -7.62852e-016 -20   XYZ
    dof rx
    limits (-90.0 20.0)
  end
  begin
     id 11 
     name lowerback
     direction 0.0104173 0.993624 -0.112266   
     length 2.00527   
     axis 0 0 0   XYZ
    dof rx ry rz
    limits (-20.0 45.0)
           (-30.0 30.0)
           (-30.0 30.0)
  end
  begin
     id 12 
     name upperback
     direction 0.00733149 0.999856 -0.0152913   
     length 2.01385   
     axis 0 0 0   XYZ
    dof rx ry rz
    limits (-20.0 45.0)
           (-30.0 30.0)
           (-30.0 30.0)
  end
  begin
     id 13 
     name thorax
     direction 0.0026304 0.999318 0.036841   
     length 2.03734   
     axis 0 0 0   XYZ
    dof rx ry rz
    limits (-20.0 45.0)
           (-30.0 30.0)
           (-30.0 30.0)
  end
  begin
     id 14 
     name lowerneck
     direction 0.0293154 0.998757 0.0403082   
     length 1.65303   
     axis 0 0 0   XYZ
    dof rx ry rz
    limits (-20.0 45.0)
           (-30.0 30.0)
           (-30.0 30.0)
  end
  begin
     id 15 
     name upperneck
     direction -0.0376619 0.998184 -0.0470083   
     length 1.60926   
     axis 0 0 0   XYZ
    dof rx ry rz
    limits (-20.0 45.0)
           (-30.0 30.0)
           (-30.0 30.0)
  end
  begin
     id 16
     name head
     direction -0.0170133 0.999635 -0.0209778  
     length 1.73625  
     axis 0 0 0   XYZ
    dof rx ry rz
    limits (-20.0 45.0)
           (-30.0 30.0)
           (-30.0 30.0)
  end
  begin
     id 17 
     name lclavicle
     direction 0.919857 0.39181 -0.0186333  
     length 3.75313  
     axis 0 0 0   XYZ
    dof ry rz
    limits (-20.0 10.0)
           (0.0 20.0)
  end
  begin
     id 18 
     name lhumerus
     direction 1 -4.48988e-011 1.44029e-027   
     length 5.49313   
     axis 180 -30 -90   XYZ
    dof rx ry rz
    limits (-60.0 90.0)
           (-90.0 90.0)
           (-90.0 90.0)
  end
  begin
     id 19
     name lradius
     direction 1 -4.48924e-011 7.46281e-027   
     length 3.29037   
     axis 180 -30 -90   XYZ
    dof rx
    limits (-10.0 170.0)
  end
  begin
     id 20
     name lwrist
     direction 1 -4.48955e-011 2.19879e-026   
     length 1.64519   
     axis -1.34358e-014 90 90   XYZ
    dof ry
    limits (-180.0 0.0)
 end
  begin
     id 21 
     name lhand
     direction 1 -4.48978e-011 4.39747e-026   
     length 0.729656   
     axis -2.80598e-014 90 90   XYZ
    dof rx rz
    limits (-90.0 90.0)
           (-45.0 45.0)
  end
  begin
     id 22 
     name lfingers
     direction 1 -4.49071e-011 8.79411e-026   
     length 0.588268   
     axis -5.61193e-014 90 90   XYZ
    dof rx
    limits (0.0 90.0)
  end
  begin
     id 23
     name lthumb
     direction 0.707107 -6.34817e-011 0.707107   
     length 0.844638   
     axis -90 45 -9.86923e-015   XYZ
    dof rx rz
    limits (-45.0 45.0)
           (-45.0 45.0)
  end
  begin
     id 24 
     name rclavicle
     direction -0.919898 0.388279 0.0550233   
     length 3.7171  
     axis 0 0 0   XYZ 
    dof ry rz
    limits (-10.0 20.0)
           (-20.0 0.0)
  end
  begin
     id 25 
     name rhumerus
     direction -1 -4.48968e-011 9.98372e-028  
     length 5.23684   
     axis 180 30 90   XYZ
    dof rx ry rz
    limits (-90.0 60.0)
           (-90.0 90.0)
           (-90.0 90.0)
  end
  begin
     id 26 
     name rradius
     direction -1 -4.48956e-011 1.01023e-026   
     length 3.38251   
     axis 180 30 90   XYZ
    dof rx
    limits (-10.0 170.0)
  end
  begin
     id 27 
     name rwrist
     direction -1 -4.4892e-011 2.19886e-026   
     length 1.69126   
     axis -1.34358e-014 -90 -90   XYZ
    dof ry
    limits (-180.0 0.0)
  end
  begin
     id 28
     name rhand
     direction -1 -4.49024e-011 4.39727e-026   
     length 0.691454   
     axis -2.80598e-014 -90 -90   XYZ
    dof rx rz
    limits (-90.0 90.0)
           (-45.0 45.0)
  end
  begin
     id 29
     name rfingers
     direction -1 -4.49097e-011 8.79388e-026   
     length 0.557468   
     axis -5.61193e-014 -90 -90   XYZ
    dof rx
    limits (0.0 90.0)
  end
  begin
     id 30
     name rthumb
     direction -0.707107 -6.34938e-011 0.707107   
     length 0.800416   
     axis -90 -45 9.86923e-015   XYZ
    dof rx rz
    limits (-45.0 45.0)
           (-45.0 45.0)
  end
:hierarchy
  begin
    root lhipjoint rhipjoint lowerback
    lhipjoint lfemur
    lfemur ltibia
    ltibia lfoot
    lfoot ltoes
    rhipjoint rfemur
    rfemur rtibia
    rtibia rfoot
    rfoot rtoes
    lowerback upperback
    upperback thorax
    thorax lowerneck lclavicle rclavicle
    lowerneck upperneck
    upperneck head
    lclavicle lhumerus
    lhumerus lradius
    lradius lwrist
    lwrist lhand lthumb
    lhand lfingers
    rclavicle rhumerus
    rhumerus rradius
    rradius rwrist
    rwrist rhand rthumb
    rhand rfingers
  end

#!OML:ASF H:\BabyWalks\Project 1\Capture day 1\Session 1\baby.ASF
:FULLY-SPECIFIED
:DEGREES
64
root -13.6334 16.1292 -2.09904 105.385 -84.4118 -117.495
lowerback 16.7402 0.11168 2.03899
upperback 4.4197 0.318157 1.41955
thorax -4.65356 0.0350248 0.288729
lowerneck -6.63917 1.10411 5.28217
upperneck 6.38948 1.33927 -5.06594
head 3.36155 0.593983 -2.56789
rclavicle 7.35503e-015 1.49089e-014
rhumerus 35.6187 7.3543 -61.0106
rradius 75.8396
rwrist 13.2389
rhand 26.0341 -24.9542
rfingers 7.12502
rthumb 50.1088 -46.1196
lclavicle 7.35503e-015 1.49089e-014
lhumerus 35.1345 -10.6152 55.3
lradius 81.503
lwrist -4.28753
lhand 26.259 29.4325
lfingers 7.12502
lthumb 50.3145 50.4885
rfemur -7.30788 -16.1 13.6093
rtibia 54.6915
rfoot -28.7414 -8.09075
rtoes -12.2007
lfemur -9.18253 13.2689 -0.41911
ltibia 55.4803
lfoot -33.5589 -8.81319
ltoes -10.5914
65
root -13.6689 16.1447 -2.10108 104.799 -84.5492 -117.118
lowerback 16.5713 0.105405 1.94883
upperback 4.3166 0.299288 1.37937
thorax -4.67346 0.0298839 0.300897
lowerneck -7.00791 1.15771 4.87591
upperneck 7.69966 1.41814 -4.52115
head 3.87966 0.639643 -2.32065
rclavicle -3.97569e-015 -9.14409e-015
rhumerus 35.3162 7.32805 -61.3842
rradius 75.8649
rwrist 12.9602
rhand 26.6091 -25.4567
rfingers 7.12502
rthumb 50.6342 -46.34
lclavicle -3.97569e-015 -9.14409e-015
lhumerus 35.0853 -10.7238 55.5198
lradius 81.6624
lwrist -4.39604
lhand 26.3554 29.4348
lfingers 7.12502
lthumb 50.4025 50.4435
rfemur -6.73897 -16.0349 13.3915
rtibia 54.3752
rfoot -28.7419 -8.12861
rtoes -12.0648
lfemur -8.68221 13.022 -0.529486
ltibia 55.1635
lfoot -33.5358 -8.71491
ltoes -10.5349
66
root -13.7029 16.1584 -2.10386 104.559 -84.6486 -117.032
lowerback 16.3489 0.103078 1.86534
upperback 4.22056 0.28545 1.34487
thorax -4.65681 0.0274388 0.314138
lowerneck -7.08002 1.17889 4.86789
upperneck 8.96801 1.4772 -4.61986
head 3.90342 0.644243 -2.12564
rclavicle -2.01269e-015 8.54774e-015
rhumerus 35.088 7.29464 -61.7612
rradius 75.7963
rwrist 12.8623
rhand 26.9721 -25.6535
rfingers 7.12502
rthumb 50.9653 -46.3542
lclavicle -2.01269e-015 8.54774e-015
lhumerus 35.0471 -10.7525 55.7625
lradius 81.7802
lwrist -4.30199
lhand 26.4895 29.4894
lfingers 7.12502
lthumb 50.525 50.432
rfemur -6.26996 -15.902 13.2573
rtibia 54.0611
rfoot -28.7039 -8.27129
rtoes -12.1161
lfemur -8.24724 12.8067 -0.62505
ltibia 54.8481
lfoot -33.4721 -8.59345
ltoes -10.4494
67
root -13.737 16.165 -2.10782 104.358 -84.5998 -117.012
lowerback 16.159 0.0975465 1.89689
upperback 4.12724 0.288204 1.35758
thorax -4.65366 0.0315037 0.308903
lowerneck -7.4396 1.19573 4.48379
upperneck 10.177 1.49777 -4.15749
head 4.32666 0.65584 -1.92244
rclavicle -2.06239e-015 -7.95139e-016
rhumerus 34.8496 7.3117 -62.1051
rradius 75.7524
rwrist 12.8439
rhand 27.3882 -25.9492
rfingers 7.12502
rthumb 51.3442 -46.4364
lclavicle -2.06239e-015 -7.95139e-016
lhumerus 34.9112 -10.7567 56.0087
lradius 81.9704
lwrist -4.05848
lhand 26.4339 29.5157
lfingers 7.12502
lthumb 50.4743 50.4858
rfemur -5.80102 -15.7211 13.285
rtibia 53.7868
rfoot -28.7263 -8.38979
rtoes -11.9308
lfemur -7.78241 12.6182 -0.528205
ltibia 54.5833
lfoot -33.4685 -8.45726
ltoes -10.5907
68
root -13.7689 16.1769 -2.1067 103.6 -84.7341 -116.409
lowerback 15.9459 0.0545777 1.85119
upperback 4.03304 0.225761 1.29789
thorax -4.63948 0.0047007 0.283692
lowerneck -7.35167 1.21544 4.76612
upperneck 11.0223 1.52375 -4.36527
head 4.57512 0.662587 -2.03532
rclavicle -1.21756e-015 -2.04748e-014
rhumerus 34.6439 7.35054 -62.3982
rradius 75.717
rwrist 12.9508
rhand 27.7122 -26.2715
rfingers 7.12502
rthumb 51.6388 -46.5893
lclavicle -1.21756e-015 -2.04748e-014
lhumerus 34.7966 -10.7476 56.2452
lradius 82.1344
lwrist -3.71559
lhand 26.5227 29.6014
lfingers 7.12502
lthumb 50.5554 50.5276
rfemur -5.32374 -15.7056 13.0824
rtibia 53.5298
rfoot -28.7564 -8.48754
rtoes -11.9769
lfemur -7.38218 12.4347 -0.642704
ltibia 54.3309
lfoot -33.4864 -8.38958
ltoes -10.4956
69
root -13.8008 16.183 -2.11588 104.216 -84.5331 -117.187
lowerback 15.7592 0.0994813 1.96293
upperback 3.93491 0.308506 1.33277
thorax -4.64155 0.0471504 0.240933
lowerneck -7.45739 1.20763 4.6898
upperneck 11.9842 1.50505 -4.20672
head 4.88604 0.651913 -1.97923
rclavicle 3.721e-015 -2.38542e-015
rhumerus 34.3832 7.33675 -62.6734
rradius 75.6911
rwrist 13.0518
rhand 27.9518 -26.4299
rfingers 7.12502
rthumb 51.8564 -46.6205
lclavicle 3.721e-015 -2.38542e-015
lhumerus 34.6484 -10.7853 56.5397
lradius 82.2991
lwrist -3.3188
lhand 26.527 29.7382
lfingers 7.12502
lthumb 50.5593 50.6622
rfemur -4.96487 -15.3805 13.3448
rtibia 53.305
rfoot -28.7738 -8.74488
rtoes -11.9288
lfemur -6.94384 12.4632 -0.330909
ltibia 54.1258
lfoot -33.5099 -8.36738
ltoes -10.633
70
root -13.8317 16.1855 -2.12114 104.037 -84.4818 -117.141
lowerback 15.5382 0.0942784 1.98773
upperback 3.86248 0.307459 1.34039
thorax -4.59891 0.0492245 0.234919
lowerneck -7.62888 1.22639 4.68036
upperneck 12.9208 1.51843 -4.13002
head 5.20452 0.654291 -1.95762
rclavicle 1.00014e-015 2.44505e-014
rhumerus 34.2166 7.34873 -62.9277
rradius 75.6849
rwrist 13.165
rhand 28.275 -26.7328
rfingers 7.12502
rthumb 52.1496 -46.7492
lclavicle 1.00014e-015 2.44505e-014
lhumerus 34.5109 -10.7364 56.8169
lradius 82.4909
lwrist -2.85928
lhand 26.4734 29.8261
lfingers 7.12502
lthumb 50.5104 50.7767
rfemur -4.61074 -15.1957 13.4199
rtibia 53.1145
rfoot -28.8249 -8.94686
rtoes -11.9155
lfemur -6.57656 12.355 -0.215832
ltibia 53.9253
lfoot -33.5395 -8.29304
ltoes -10.6853
71
root -13.8634 16.1911 -2.11655 103.688 -84.6846 -116.924
lowerback 15.3211 0.0601584 1.9345
upperback 3.77327 0.253403 1.24913
thorax -4.57658 0.0264861 0.178894
lowerneck -7.80068 1.26992 4.56156
upperneck 13.9234 1.55687 -3.91481
head 5.54504 0.671974 -1.87338
rclavicle -6.0443e-015 8.34896e-015
rhumerus 34.0117 7.36386 -63.1528
rradius 75.657
rwrist 13.2162
rhand 28.5258 -26.9256
rfingers 7.12502
rthumb 52.3768 -46.8048
lclavicle -6.0443e-015 8.34896e-015
lhumerus 34.3607 -10.7069 57.1599
lradius 82.6435
lwrist -2.44964
lhand 26.4015 29.7864
lfingers 7.12502
lthumb 50.4447 50.7724
rfemur -4.20132 -15.2508 13.0885
rtibia 52.9499
rfoot -28.8756 -8.94672
rtoes -11.9497
lfemur -6.21858 12.2264 -0.427596
ltibia 53.7404
lfoot -33.596 -8.19558
ltoes -10.7993
72
root -13.894 16.1941 -2.11842 103.742 -84.7727 -117.112
lowerback 15.1103 0.0518243 1.86969
upperback 3.71446 0.231338 1.20255
thorax -4.52523 0.0189022 0.170328
lowerneck -7.9802 1.28432 4.56828
upperneck 14.776 1.55292 -3.82318
head 5.84198 0.668071 -1.85091
rclavicle -4.37637e-015 7.7526e-015
rhumerus 33.8567 7.38749 -63.3249
rradius 75.7253
rwrist 13.1361
rhand 28.8203 -27.3186
rfingers 7.12502
rthumb 52.6433 -47.0342
lclavicle -4.37637e-015 7.7526e-015
lhumerus 34.244 -10.6517 57.47
lradius 82.7872
lwrist -2.08254
lhand 26.3265 29.7152
lfingers 7.12502
lthumb 50.3762 50.7381
rfemur -3.86537 -15.1203 12.9662
rtibia 52.8346
rfoot -28.9459 -9.09614
rtoes -11.9585
lfemur -5.86305 12.1339 -0.489455
ltibia 53.5828
lfoot -33.6531 -8.10089
ltoes -10.8619
